<svg xmlns="http://www.w3.org/2000/svg" class="icon icon-tabler icon-tabler-brand-linkedin" width="24" height="24" viewBox="0 0 24 24" stroke-width="2" stroke="currentColor" fill="none" stroke-linecap="round" stroke-linejoin="round">
<path style=" stroke:none;fill-rule:nonzero;fill:rgb(0%,0%,0%);fill-opacity:1;" d="M 4.320312 1.921875 C 3 1.921875 1.921875 3 1.921875 4.320312 L 1.921875 19.679688 C 1.921875 21 3 22.078125 4.320312 22.078125 L 19.679688 22.078125 C 21 22.078125 22.078125 21 22.078125 19.679688 L 22.078125 4.320312 C 22.078125 3 21 1.921875 19.679688 1.921875 Z M 4.320312 2.878906 L 19.679688 2.878906 C 20.480469 2.878906 21.121094 3.519531 21.121094 4.320312 L 21.121094 19.679688 C 21.121094 20.480469 20.480469 21.121094 19.679688 21.121094 L 4.320312 21.121094 C 3.519531 21.121094 2.878906 20.480469 2.878906 19.679688 L 2.878906 4.320312 C 2.878906 3.519531 3.519531 2.878906 4.320312 2.878906 Z M 6.71875 5.285156 C 6.195312 5.285156 5.722656 5.441406 5.371094 5.738281 C 5.019531 6.03125 4.804688 6.472656 4.804688 6.945312 C 4.804688 7.839844 5.582031 8.539062 6.570312 8.609375 C 6.574219 8.609375 6.574219 8.609375 6.574219 8.609375 C 6.621094 8.625 6.671875 8.632812 6.71875 8.632812 C 7.8125 8.632812 8.632812 7.871094 8.632812 6.945312 C 8.632812 6.9375 8.632812 6.925781 8.632812 6.917969 C 8.585938 6.007812 7.769531 5.285156 6.71875 5.285156 Z M 6.71875 6.234375 C 7.386719 6.234375 7.652344 6.53125 7.679688 6.957031 C 7.675781 7.367188 7.421875 7.6875 6.71875 7.6875 C 6.054688 7.6875 5.753906 7.34375 5.753906 6.945312 C 5.753906 6.742188 5.828125 6.59375 5.980469 6.464844 C 6.136719 6.332031 6.382812 6.234375 6.71875 6.234375 Z M 5.28125 9.121094 C 5.015625 9.121094 4.800781 9.335938 4.800781 9.601562 L 4.800781 18.71875 C 4.800781 18.984375 5.015625 19.199219 5.28125 19.199219 L 8.160156 19.199219 C 8.425781 19.199219 8.640625 18.984375 8.640625 18.71875 L 8.640625 9.601562 C 8.640625 9.335938 8.425781 9.121094 8.160156 9.121094 Z M 9.601562 9.121094 C 9.335938 9.121094 9.121094 9.335938 9.121094 9.601562 L 9.121094 18.71875 C 9.121094 18.984375 9.335938 19.199219 9.601562 19.199219 L 12.480469 19.199219 C 12.746094 19.199219 12.960938 18.984375 12.960938 18.71875 L 12.960938 13.921875 C 12.960938 13.523438 13.070312 13.125 13.261719 12.867188 C 13.453125 12.605469 13.691406 12.453125 14.152344 12.460938 C 14.625 12.46875 14.875 12.628906 15.066406 12.882812 C 15.253906 13.136719 15.359375 13.519531 15.359375 13.921875 L 15.359375 18.71875 C 15.359375 18.984375 15.574219 19.199219 15.839844 19.199219 L 18.71875 19.199219 C 18.984375 19.199219 19.199219 18.984375 19.199219 18.71875 L 19.199219 13.566406 C 19.199219 12.144531 18.777344 11.019531 18.058594 10.257812 C 17.335938 9.496094 16.332031 9.121094 15.269531 9.121094 C 14.261719 9.121094 13.492188 9.457031 12.960938 9.804688 L 12.960938 9.601562 C 12.960938 9.335938 12.746094 9.121094 12.480469 9.121094 Z M 5.761719 10.078125 L 7.679688 10.078125 L 7.679688 18.238281 L 5.761719 18.238281 Z M 10.078125 10.078125 L 12 10.078125 L 12 10.828125 C 12 11.035156 12.132812 11.21875 12.328125 11.285156 C 12.523438 11.351562 12.738281 11.28125 12.863281 11.117188 C 12.863281 11.117188 13.617188 10.078125 15.269531 10.078125 C 16.113281 10.078125 16.832031 10.359375 17.359375 10.917969 C 17.886719 11.472656 18.238281 12.332031 18.238281 13.566406 L 18.238281 18.238281 L 16.320312 18.238281 L 16.320312 13.921875 C 16.320312 13.359375 16.1875 12.78125 15.835938 12.308594 C 15.484375 11.839844 14.894531 11.511719 14.167969 11.5 C 13.4375 11.488281 12.839844 11.820312 12.488281 12.296875 C 12.136719 12.773438 12 13.359375 12 13.921875 L 12 18.238281 L 10.078125 18.238281 Z M 10.078125 10.078125 "/>
</svg>
